<svg id="wave" style="transform:rotate(180deg); transition: 0.3s" viewBox="0 0 1440 100" version="1.1" xmlns="http://www.w3.org/2000/svg">
  <defs>
    <linearGradient id="sw-gradient-0" x1="0" x2="0" y1="1" y2="0">
      <stop stop-color="rgba(243, 106, 62, 1)" offset="0%"></stop>
      <stop stop-color="rgba(255, 179, 11, 1)" offset="100%"></stop>
    </linearGradient>
  </defs>
  <path style="transform:translate(0, 0px); opacity:1" fill="url(#sw-gradient-0)" d="M0,60L10.9,60C21.8,60,44,60,65,67.5C87.3,75,109,90,131,90C152.7,90,175,75,196,72.5C218.2,70,240,80,262,82.5C283.6,85,305,80,327,87.5C349.1,95,371,115,393,115C414.5,115,436,95,458,85C480,75,502,75,524,70C545.5,65,567,55,589,50C610.9,45,633,45,655,42.5C676.4,40,698,35,720,35C741.8,35,764,40,785,40C807.3,40,829,35,851,47.5C872.7,60,895,90,916,87.5C938.2,85,960,50,982,30C1003.6,10,1025,5,1047,2.5C1069.1,0,1091,0,1113,15C1134.5,30,1156,60,1178,80C1200,100,1222,110,1244,102.5C1265.5,95,1287,70,1309,72.5C1330.9,75,1353,105,1375,112.5C1396.4,120,1418,105,1440,85C1461.8,65,1484,40,1505,40C1527.3,40,1549,65,1560,77.5L1570.9,90L1570.9,150L1560,150C1549.1,150,1527,150,1505,150C1483.6,150,1462,150,1440,150C1418.2,150,1396,150,1375,150C1352.7,150,1331,150,1309,150C1287.3,150,1265,150,1244,150C1221.8,150,1200,150,1178,150C1156.4,150,1135,150,1113,150C1090.9,150,1069,150,1047,150C1025.5,150,1004,150,982,150C960,150,938,150,916,150C894.5,150,873,150,851,150C829.1,150,807,150,785,150C763.6,150,742,150,720,150C698.2,150,676,150,655,150C632.7,150,611,150,589,150C567.3,150,545,150,524,150C501.8,150,480,150,458,150C436.4,150,415,150,393,150C370.9,150,349,150,327,150C305.5,150,284,150,262,150C240,150,218,150,196,150C174.5,150,153,150,131,150C109.1,150,87,150,65,150C43.6,150,22,150,11,150L0,150Z"></path>
</svg>
